<svg xmlns="http://www.w3.org/2000/svg" viewBox="0 0 48 60" x="0px" y="0px"><title>27-Digital Art</title><g data-name="27-Digital Art"><path d="M43,0H39a1,1,0,0,0,0,2h4a3,3,0,0,1,3,3V23a1,1,0,0,0,2,0V5A5.006,5.006,0,0,0,43,0Z"/><path d="M47,27H37V5a1,1,0,0,0-.1-.447l-2-4a1.042,1.042,0,0,0-1.79,0l-2,4A1,1,0,0,0,31,5V6a1,1,0,0,0,2,0V5.236l1-2,1,2V27H33V20a1,1,0,0,0-2,0v7H29V18h1a1,1,0,0,0,0-2H29V15a3.436,3.436,0,0,1,2.316-3.051,1,1,0,0,0,.579-1.4l-5-10a.869.869,0,0,0-.164-.225.979.979,0,0,0-1.462,0,.869.869,0,0,0-.164.225l-5,10a1.006,1.006,0,0,0,.574,1.394A3.439,3.439,0,0,1,23,15v1H22a1,1,0,0,0,0,2h1v9H21V20a1,1,0,0,0-2,0v7H13V22h3a1,1,0,0,0,0-2H13V17h2a1,1,0,0,0,0-2H13V12h3a1,1,0,0,0,0-2H13V7h2a1,1,0,0,0,0-2H13V2h6V6a1,1,0,0,0,2,0V2a2,2,0,0,0-2-2H13a2,2,0,0,0-2,2V27H6a1,1,0,0,0,0,2H46v4a3,3,0,0,1-3,3H5a3,3,0,0,1-3-3V5A3,3,0,0,1,5,2H8A1,1,0,0,0,8,0H5A5.006,5.006,0,0,0,0,5V33a5.006,5.006,0,0,0,5,5H16v4.465l-2.555,1.7A1,1,0,0,0,13,45v1a2,2,0,0,0,2,2H33a2,2,0,0,0,2-2V45a1,1,0,0,0-.445-.832L32,42.465V41a1,1,0,0,0-2,0v2a1,1,0,0,0,.445.832L33,45.535V46H15v-.465l2.555-1.7A1,1,0,0,0,18,43V38H43a5.006,5.006,0,0,0,5-5V28A1,1,0,0,0,47,27ZM27,27H25V18h2Zm0-12v1H25V15a5.1,5.1,0,0,0-2.654-4.456L25,5.236V10a1,1,0,0,0,2,0V5.236l2.654,5.308A5.093,5.093,0,0,0,27,15Z"/></g><text x="0" y="63" fill="#000000" font-size="5px" font-weight="bold" font-family="'Helvetica Neue', Helvetica, Arial-Unicode, Arial, Sans-serif">Created by Iconstock</text><text x="0" y="68" fill="#000000" font-size="5px" font-weight="bold" font-family="'Helvetica Neue', Helvetica, Arial-Unicode, Arial, Sans-serif">from the Noun Project</text></svg>