<svg id="Layer_5" enable-background="new 0 0 64 64" height="512" viewBox="0 0 64 64" width="512" xmlns="http://www.w3.org/2000/svg"><path d="m22 47v-6h-8v6zm-6-4h4v2h-4z"/><path d="m50 41h-8v6h8zm-2 4h-4v-2h4z"/><path d="m60 39c1.654 0 3-1.346 3-3v-8c0-1.31-.849-2.414-2.021-2.822-.436-13.406-11.47-24.178-24.979-24.178h-8c-13.509 0-24.543 10.773-24.979 24.178-1.172.408-2.021 1.512-2.021 2.822v8c0 1.654 1.346 3 3 3h4.153l1.667 10h-2.54l-4 12h-2.28v2h62v-2h-2.279l-4-12h-2.54l1.667-10zm0-2h-7v-4h8v3c0 .551-.449 1-1 1zm1-6h-8v-4h7c.551 0 1 .449 1 1zm-20.586-6 3.586-3.586 3.586 3.586zm-12 0 3.586-3.586 3.586 3.586zm9.586-.414-4.586-4.586 4.586-4.586 4.586 4.586zm-6-6-4.586-4.586 4.586-4.586 4.586 4.586zm-1.414 1.414-4.586 4.586-4.586-4.586 4.586-4.586zm-7 5h-7.172l3.586-3.586zm7.414 2v4h-8v-4zm2 0h8v4h-8zm10 0h8v4h-8zm9.414-2 5.613-5.613c.538 1.79.864 3.67.948 5.613zm3.586-6.414-4.586-4.586 2.457-2.457c1.402 1.73 2.558 3.667 3.415 5.757zm-1.414 1.414-4.586 4.586-4.586-4.586 4.586-4.586zm-10.586-1.414-4.586-4.586 4.586-4.586 4.586 4.586zm-6-6-4.586-4.586 4.586-4.586 4.586 4.586zm2.958-9.042c1.587.35 3.112.865 4.558 1.525l-1.516 1.517zm-8.958 3.042-3.586-3.586h7.172zm-6-3.172 4.586 4.586-4.586 4.586-4.586-4.586zm-6 3.172-1.516-1.516c1.446-.66 2.971-1.175 4.558-1.525zm4.586 7.414-4.586 4.586-4.586-4.586 4.586-4.586zm-6 6-4.586 4.586-4.586-4.586 4.586-4.586zm-10.586-1.414-1.286-1.286c.857-2.09 2.013-4.027 3.415-5.757l2.457 2.457zm3.586 6.414h-6.561c.084-1.943.41-3.823.948-5.613zm9.414 2v4h-8v-4zm0 6v4h-8v-4zm2 0h8v4h-8zm10 0h8v4h-8zm10 0h8v4h-8zm9.542-22.956-2.542 2.542-4.586-4.586 1.972-1.972c1.906 1.091 3.641 2.446 5.156 4.016zm-35.928-4.016 1.972 1.972-4.586 4.586-2.542-2.542c1.515-1.57 3.25-2.925 5.156-4.016zm-12.614 20.972h7v4h-8v-3c0-.551.449-1 1-1zm-1 9v-3h8v4h-7c-.551 0-1-.449-1-1zm5.721 15h5.998l-2.5 10h-6.831zm29.279-2h-12v-5c0-.551.449-1 1-1h10c.551 0 1 .449 1 1zm3.219 2 .5 2h-19.438l.5-2zm6 0 2.5 10h-3.938l-2.5-10zm-25.438 4h20.438l.5 2h-21.438zm-1 4h22.438l.5 2h-23.438zm-2.562 2h-3.938l2.5-10h3.938zm40.393 0h-6.832l-2.5-10h5.998zm-6.459-12h-12.153v-5c0-1.654-1.346-3-3-3h-10c-1.654 0-3 1.346-3 3v5h-12.153l-1.667-10h43.64z"/></svg>