<svg xmlns="http://www.w3.org/2000/svg" data-name="Layer 1" viewBox="0 0 100 125" x="0px" y="0px"><title>08</title><g data-name="Group"><path data-name="Compound Path" d="M95.84,51.65a2,2,0,0,0-.42-1.23L89.62,43h0l-6.44-13.5a12.06,12.06,0,0,0-10.83-6.84H60.62v-3.1a2,2,0,0,0-2-2H15.86a2,2,0,1,0,0,4H56.62V43.94a2,2,0,0,0,2,2H86.87l5,6.39V69.4h-7.7a11.11,11.11,0,0,0-21.88,0H42.45a11.11,11.11,0,0,0-21.88,0H14.86a2,2,0,1,0,0,4h5.73a11.12,11.12,0,0,0,21.86,0H62.27a11.12,11.12,0,0,0,21.86,0h7.71a4,4,0,0,0,4-4Zm-35.22-25H72.38a8,8,0,0,1,7.22,4.56l5.13,10.76H60.62ZM31.51,78.48a7.13,7.13,0,1,1,7.12-7.12A7.13,7.13,0,0,1,31.51,78.48Zm41.69,0a7.13,7.13,0,1,1,7.13-7.12A7.13,7.13,0,0,1,73.2,78.48Z"/><path data-name="Path" d="M24.16,56a2,2,0,0,0-2-2h-11a2,2,0,0,0,0,4h11A2,2,0,0,0,24.16,56Z"/><path data-name="Path" d="M6.16,46h23a2,2,0,1,0,0-4h-23a2,2,0,1,0,0,4Z"/><path data-name="Path" d="M9.16,32a2,2,0,0,0,2,2h23a2,2,0,0,0,0-4h-23A2,2,0,0,0,9.16,32Z"/></g><text x="0" y="115" fill="#000000" font-size="5px" font-weight="bold" font-family="'Helvetica Neue', Helvetica, Arial-Unicode, Arial, Sans-serif">Created by Logan</text><text x="0" y="120" fill="#000000" font-size="5px" font-weight="bold" font-family="'Helvetica Neue', Helvetica, Arial-Unicode, Arial, Sans-serif">from the Noun Project</text></svg>