<svg xmlns="http://www.w3.org/2000/svg" xmlns:xlink="http://www.w3.org/1999/xlink" version="1.1" x="0px" y="0px" viewBox="0 0 66 82.5" enable-background="new 0 0 66 66" xml:space="preserve"><g><path d="M52.841,4.378H42.459L41.85,2.205c-0.121-0.432-0.515-0.73-0.963-0.73H25.113   c-0.448,0-0.842,0.298-0.963,0.73l-0.609,2.173H13.16c-2.104,0-3.816,1.712-3.816,3.816v52.514c0,2.104,1.712,3.816,3.816,3.816   h39.681c2.104,0,3.816-1.712,3.816-3.816V8.195C56.657,6.09,54.945,4.378,52.841,4.378z M21.16,14.344   c0.189,0.25,0.484,0.396,0.797,0.396h22.087c0.313,0,0.608-0.146,0.797-0.396c0.189-0.249,0.25-0.573,0.166-0.874l-0.672-2.398   h5.628v46.759H16.037V11.072h5.628l-0.672,2.398C20.909,13.771,20.971,14.095,21.16,14.344z M25.872,3.475h14.257l2.596,9.265   H23.275L25.872,3.475z M54.657,60.708c0,1.001-0.814,1.816-1.816,1.816H13.16c-1.001,0-1.816-0.815-1.816-1.816V8.195   c0-1.001,0.815-1.816,1.816-1.816h9.821l-0.755,2.694h-7.189c-0.552,0-1,0.448-1,1v48.759c0,0.552,0.448,1,1,1h35.926   c0.552,0,1-0.448,1-1V10.072c0-0.552-0.448-1-1-1h-7.189l-0.755-2.694h9.822c1.001,0,1.816,0.815,1.816,1.816V60.708z"/><path d="M45.113,35.96H20.888c-0.552,0-1,0.448-1,1s0.448,1,1,1h24.225c0.552,0,1-0.448,1-1   S45.665,35.96,45.113,35.96z"/><path d="M19.888,20.96c0,0.552,0.448,1,1,1h24.225c0.552,0,1-0.448,1-1s-0.448-1-1-1H20.888   C20.336,19.96,19.888,20.408,19.888,20.96z"/><path d="M45.113,43.96H32.505c-0.552,0-1,0.448-1,1s0.448,1,1,1h12.608c0.552,0,1-0.448,1-1   S45.665,43.96,45.113,43.96z"/><path d="M45.113,27.96H32.505c-0.552,0-1,0.448-1,1s0.448,1,1,1h12.608c0.552,0,1-0.448,1-1   S45.665,27.96,45.113,27.96z"/><path d="M45.113,51.96H20.888c-0.552,0-1,0.448-1,1s0.448,1,1,1h24.225c0.552,0,1-0.448,1-1   S45.665,51.96,45.113,51.96z"/><path d="M22.615,32.251c0.195,0.195,0.451,0.293,0.707,0.293s0.512-0.098,0.707-0.293l5.169-5.169   c0.391-0.391,0.391-1.023,0-1.414s-1.023-0.391-1.414,0l-4.462,4.462l-1.727-1.727c-0.391-0.391-1.023-0.391-1.414,0   s-0.391,1.023,0,1.414L22.615,32.251z"/><path d="M22.615,48.251c0.195,0.195,0.451,0.293,0.707,0.293s0.512-0.098,0.707-0.293l5.169-5.169   c0.391-0.391,0.391-1.023,0-1.414s-1.023-0.391-1.414,0l-4.462,4.462l-1.727-1.727c-0.391-0.391-1.023-0.391-1.414,0   s-0.391,1.023,0,1.414L22.615,48.251z"/></g><text x="0" y="81" fill="#000000" font-size="5px" font-weight="bold" font-family="'Helvetica Neue', Helvetica, Arial-Unicode, Arial, Sans-serif">Created by ProSymbols</text><text x="0" y="86" fill="#000000" font-size="5px" font-weight="bold" font-family="'Helvetica Neue', Helvetica, Arial-Unicode, Arial, Sans-serif">from the Noun Project</text></svg>