<svg xmlns="http://www.w3.org/2000/svg" xmlns:xlink="http://www.w3.org/1999/xlink" version="1.1" x="0px" y="0px" viewBox="0 0 64 80" enable-background="new 0 0 64 64" xml:space="preserve"><g display="none"><rect x="-483.995" y="-160.005" display="inline" fill="#000000" width="779" height="383"/></g><g display="none"><g display="inline"><rect x="0.505" y="10.495" fill="#000000" width="63" height="49"/><path fill="#000000" d="M63.005,10.995v48h-62v-48H63.005 M64.005,9.995h-64v50h64V9.995L64.005,9.995z"/></g><g display="inline"><path fill="#000000" d="M64.005,9.995v-3c0-1.65-1.35-3-3-3h-58c-1.65,0-3,1.35-3,3v3H64.005z"/><g><circle fill="#000000" cx="4.026" cy="6.995" r="0.854"/><circle fill="#000000" cx="6.589" cy="6.995" r="0.854"/><circle fill="#000000" cx="9.151" cy="6.995" r="0.854"/></g><path fill="#000000" d="M55.505,8.495h-37c-0.825,0-1.5-0.675-1.5-1.5v0c0-0.825,0.675-1.5,1.5-1.5h37c0.825,0,1.5,0.675,1.5,1.5    v0C57.005,7.82,56.33,8.495,55.505,8.495z"/></g><rect x="7.005" y="47.995" transform="matrix(-1 -4.489621e-11 4.489621e-11 -1 36.0104 96.9896)" display="inline" fill="#000000" width="22" height="1"/><rect x="7.005" y="50.995" transform="matrix(-1 -4.489621e-11 4.489621e-11 -1 36.0104 102.9896)" display="inline" fill="#000000" width="22" height="1"/><rect x="7.005" y="53.995" transform="matrix(-1 -4.489621e-11 4.489621e-11 -1 36.0104 108.9896)" display="inline" fill="#000000" width="22" height="1"/><rect x="7.005" y="38.995" transform="matrix(-1 -4.489621e-11 4.489621e-11 -1 36.0104 78.9896)" display="inline" fill="#000000" width="22" height="1"/><rect x="7.005" y="41.995" transform="matrix(-1 -4.489621e-11 4.489621e-11 -1 36.0104 84.9896)" display="inline" fill="#000000" width="22" height="1"/><rect x="7.005" y="44.995" transform="matrix(-1 -4.489621e-11 4.489621e-11 -1 36.0104 90.9896)" display="inline" fill="#000000" width="22" height="1"/><rect x="7.005" y="29.995" transform="matrix(-1 -4.489621e-11 4.489621e-11 -1 36.0104 60.9896)" display="inline" fill="#000000" width="22" height="1"/><rect x="7.005" y="32.995" transform="matrix(-1 -4.489621e-11 4.489621e-11 -1 36.0104 66.9896)" display="inline" fill="#000000" width="22" height="1"/><rect x="7.005" y="35.995" transform="matrix(-1 -4.489621e-11 4.489621e-11 -1 36.0104 72.9896)" display="inline" fill="#000000" width="22" height="1"/><rect x="35.005" y="47.995" transform="matrix(-1 -4.489621e-11 4.489621e-11 -1 92.0104 96.9896)" display="inline" fill="#000000" width="22" height="1"/><rect x="35.005" y="50.995" transform="matrix(-1 -4.489621e-11 4.489621e-11 -1 92.0104 102.9896)" display="inline" fill="#000000" width="22" height="1"/><rect x="35.005" y="53.995" transform="matrix(-1 -4.489621e-11 4.489621e-11 -1 92.0104 108.9896)" display="inline" fill="#000000" width="22" height="1"/><rect x="35.005" y="38.995" transform="matrix(-1 -4.489621e-11 4.489621e-11 -1 92.0104 78.9896)" display="inline" fill="#000000" width="22" height="1"/><rect x="35.005" y="41.995" transform="matrix(-1 -4.489621e-11 4.489621e-11 -1 92.0104 84.9896)" display="inline" fill="#000000" width="22" height="1"/><rect x="35.005" y="44.995" transform="matrix(-1 -4.489621e-11 4.489621e-11 -1 92.0104 90.9896)" display="inline" fill="#000000" width="22" height="1"/><rect x="35.005" y="35.995" transform="matrix(-1 -4.489621e-11 4.489621e-11 -1 92.0104 72.9896)" display="inline" fill="#000000" width="22" height="1"/><rect x="7.005" y="20.995" transform="matrix(-1 -4.489621e-11 4.489621e-11 -1 36.0104 42.9896)" display="inline" fill="#000000" width="22" height="1"/><rect x="7.005" y="23.995" transform="matrix(-1 -4.489621e-11 4.489621e-11 -1 36.0104 48.9896)" display="inline" fill="#000000" width="22" height="1"/><rect x="7.005" y="26.995" transform="matrix(-1 -4.489621e-11 4.489621e-11 -1 36.0104 54.9896)" display="inline" fill="#000000" width="22" height="1"/><rect x="7.005" y="17.995" transform="matrix(-1 -4.489621e-11 4.489621e-11 -1 36.0104 36.9896)" display="inline" fill="#000000" width="22" height="1"/><rect x="7.005" y="14.995" transform="matrix(-1 -4.489621e-11 4.489621e-11 -1 36.0104 30.9896)" display="inline" fill="#000000" width="22" height="1"/><rect x="35.005" y="14.995" transform="matrix(-1 -1.686708e-11 1.686708e-11 -1 92.0104 44.9896)" display="inline" fill="#000000" width="22" height="15"/></g><g display="none"><g display="inline"><rect x="0.505" y="10.495" fill="#000000" width="63" height="49"/><path fill="#000000" d="M63.005,10.995v48h-62v-48H63.005 M64.005,9.995h-64v50h64V9.995L64.005,9.995z"/></g><g display="inline"><path d="M64.005,9.995v-3c0-1.65-1.35-3-3-3h-58c-1.65,0-3,1.35-3,3v3H64.005z"/><g><circle cx="4.026" cy="6.995" r="0.854"/><circle cx="6.589" cy="6.995" r="0.854"/><circle cx="9.151" cy="6.995" r="0.854"/></g><path fill="#000000" d="M55.505,8.495h-37c-0.825,0-1.5-0.675-1.5-1.5v0c0-0.825,0.675-1.5,1.5-1.5h37c0.825,0,1.5,0.675,1.5,1.5    v0C57.005,7.82,56.33,8.495,55.505,8.495z"/></g><rect x="7.005" y="47.995" transform="matrix(-1 -4.489621e-11 4.489621e-11 -1 36.0104 96.9896)" display="inline" width="22" height="1"/><rect x="7.005" y="50.995" transform="matrix(-1 -4.489621e-11 4.489621e-11 -1 36.0104 102.9896)" display="inline" width="22" height="1"/><rect x="7.005" y="53.995" transform="matrix(-1 -4.489621e-11 4.489621e-11 -1 36.0104 108.9896)" display="inline" width="22" height="1"/><rect x="7.005" y="38.995" transform="matrix(-1 -4.489621e-11 4.489621e-11 -1 36.0104 78.9896)" display="inline" width="22" height="1"/><rect x="7.005" y="41.995" transform="matrix(-1 -4.489621e-11 4.489621e-11 -1 36.0104 84.9896)" display="inline" width="22" height="1"/><rect x="7.005" y="44.995" transform="matrix(-1 -4.489621e-11 4.489621e-11 -1 36.0104 90.9896)" display="inline" width="22" height="1"/><rect x="7.005" y="29.995" transform="matrix(-1 -4.489621e-11 4.489621e-11 -1 36.0104 60.9896)" display="inline" width="22" height="1"/><rect x="7.005" y="32.995" transform="matrix(-1 -4.489621e-11 4.489621e-11 -1 36.0104 66.9896)" display="inline" width="22" height="1"/><rect x="7.005" y="35.995" transform="matrix(-1 -4.489621e-11 4.489621e-11 -1 36.0104 72.9896)" display="inline" width="22" height="1"/><rect x="35.005" y="47.995" transform="matrix(-1 -4.489621e-11 4.489621e-11 -1 92.0104 96.9896)" display="inline" width="22" height="1"/><rect x="35.005" y="50.995" transform="matrix(-1 -4.489621e-11 4.489621e-11 -1 92.0104 102.9896)" display="inline" width="22" height="1"/><rect x="35.005" y="53.995" transform="matrix(-1 -4.489621e-11 4.489621e-11 -1 92.0104 108.9896)" display="inline" width="22" height="1"/><rect x="35.005" y="38.995" transform="matrix(-1 -4.489621e-11 4.489621e-11 -1 92.0104 78.9896)" display="inline" width="22" height="1"/><rect x="35.005" y="41.995" transform="matrix(-1 -4.489621e-11 4.489621e-11 -1 92.0104 84.9896)" display="inline" width="22" height="1"/><rect x="35.005" y="44.995" transform="matrix(-1 -4.489621e-11 4.489621e-11 -1 92.0104 90.9896)" display="inline" width="22" height="1"/><rect x="35.005" y="35.995" transform="matrix(-1 -4.489621e-11 4.489621e-11 -1 92.0104 72.9896)" display="inline" width="22" height="1"/><rect x="7.005" y="20.995" transform="matrix(-1 -4.489621e-11 4.489621e-11 -1 36.0104 42.9896)" display="inline" width="22" height="1"/><rect x="7.005" y="23.995" transform="matrix(-1 -4.489621e-11 4.489621e-11 -1 36.0104 48.9896)" display="inline" width="22" height="1"/><rect x="7.005" y="26.995" transform="matrix(-1 -4.489621e-11 4.489621e-11 -1 36.0104 54.9896)" display="inline" width="22" height="1"/><rect x="7.005" y="17.995" transform="matrix(-1 -4.489621e-11 4.489621e-11 -1 36.0104 36.9896)" display="inline" width="22" height="1"/><rect x="7.005" y="14.995" transform="matrix(-1 -4.489621e-11 4.489621e-11 -1 36.0104 30.9896)" display="inline" width="22" height="1"/><rect x="35.005" y="14.995" transform="matrix(-1 -1.686708e-11 1.686708e-11 -1 92.0104 44.9896)" display="inline" width="22" height="15"/></g><g display="none"><path display="inline" d="M64,10V8.811V7c0-1.65-1.35-3-3-3H3C1.35,4,0,5.35,0,7v1.811V10v50h64V10z M18.5,5.5h37   C56.325,5.5,57,6.175,57,7s-0.675,1.5-1.5,1.5h-37C17.675,8.5,17,7.825,17,7S17.675,5.5,18.5,5.5z M10.146,6.146   C10.618,6.146,11,6.528,11,7s-0.382,0.854-0.854,0.854S9.292,7.472,9.292,7S9.674,6.146,10.146,6.146z M7.583,6.146   c0.472,0,0.854,0.382,0.854,0.854S8.055,7.854,7.583,7.854C7.112,7.854,6.729,7.472,6.729,7S7.112,6.146,7.583,6.146z M5.021,6.146   c0.472,0,0.854,0.382,0.854,0.854S5.493,7.854,5.021,7.854S4.167,7.472,4.167,7S4.549,6.146,5.021,6.146z M63,59H1V10h62V59z"/><rect x="7.005" y="47.484" display="inline" width="22" height="1"/><rect x="7.005" y="50.484" display="inline" width="22" height="1"/><rect x="7.005" y="53.484" display="inline" width="22" height="1"/><rect x="7.005" y="38.484" display="inline" width="22" height="1"/><rect x="7.005" y="41.484" display="inline" width="22" height="1"/><rect x="7.005" y="44.484" display="inline" width="22" height="1"/><rect x="7.005" y="29.484" display="inline" width="22" height="1"/><rect x="7.005" y="32.484" display="inline" width="22" height="1"/><rect x="7.005" y="35.484" display="inline" width="22" height="1"/><rect x="35.005" y="47.484" display="inline" width="22" height="1"/><rect x="35.005" y="50.484" display="inline" width="22" height="1"/><rect x="35.005" y="53.484" display="inline" width="22" height="1"/><rect x="35.005" y="38.484" display="inline" width="22" height="1"/><rect x="35.005" y="41.484" display="inline" width="22" height="1"/><rect x="35.005" y="44.484" display="inline" width="22" height="1"/><rect x="35.005" y="35.484" display="inline" width="22" height="1"/><rect x="7.005" y="20.484" display="inline" width="22" height="1"/><rect x="7.005" y="23.484" display="inline" width="22" height="1"/><rect x="7.005" y="26.484" display="inline" width="22" height="1"/><rect x="7.005" y="17.484" display="inline" width="22" height="1"/><rect x="7.005" y="14.484" display="inline" width="22" height="1"/><rect x="35.005" y="14.484" display="inline" width="22" height="15"/></g><g><path d="M61,4H3C1.35,4,0,5.35,0,7v1.811V10v50h64V10V8.811V7C64,5.35,62.65,4,61,4z M18.5,5.5h37C56.325,5.5,57,6.175,57,7   s-0.675,1.5-1.5,1.5h-37C17.675,8.5,17,7.825,17,7S17.675,5.5,18.5,5.5z M10.146,6.146C10.618,6.146,11,6.528,11,7   s-0.382,0.854-0.854,0.854S9.292,7.472,9.292,7S9.674,6.146,10.146,6.146z M5.021,7.854C4.549,7.854,4.167,7.472,4.167,7   s0.382-0.854,0.854-0.854S5.875,6.528,5.875,7S5.493,7.854,5.021,7.854z M6.729,7c0-0.472,0.382-0.854,0.854-0.854   c0.472,0,0.854,0.382,0.854,0.854S8.055,7.854,7.583,7.854C7.112,7.854,6.729,7.472,6.729,7z M29.005,54.253h-22v-1h22V54.253z    M29.005,51.253h-22v-1h22V51.253z M29.005,48.253h-22v-1h22V48.253z M29.005,45.253h-22v-1h22V45.253z M29.005,42.253h-22v-1h22   V42.253z M29.005,39.253h-22v-1h22V39.253z M29.005,36.253h-22v-1h22V36.253z M29.005,33.253h-22v-1h22V33.253z M29.005,30.253h-22   v-1h22V30.253z M29.005,27.253h-22v-1h22V27.253z M29.005,24.253h-22v-1h22V24.253z M29.005,21.253h-22v-1h22V21.253z    M29.005,18.253h-22v-1h22V18.253z M29.005,15.253h-22v-1h22V15.253z M57.005,54.253h-22v-1h22V54.253z M57.005,51.253h-22v-1h22   V51.253z M57.005,48.253h-22v-1h22V48.253z M57.005,45.253h-22v-1h22V45.253z M57.005,42.253h-22v-1h22V42.253z M57.005,39.253h-22   v-1h22V39.253z M57.005,36.253h-22v-1h22V36.253z M57.005,29.253h-22v-15h22V29.253z"/></g><text x="0" y="79" fill="#000000" font-size="5px" font-weight="bold" font-family="'Helvetica Neue', Helvetica, Arial-Unicode, Arial, Sans-serif">Created by Alfredo @ IconsAlfredo.com</text><text x="0" y="84" fill="#000000" font-size="5px" font-weight="bold" font-family="'Helvetica Neue', Helvetica, Arial-Unicode, Arial, Sans-serif">from the Noun Project</text></svg>