<svg width="50" height="51" viewBox="0 0 50 51" fill="none" xmlns="http://www.w3.org/2000/svg">
<path d="M35.3847 9.61864H29.5645L29.2231 8.40703C29.1552 8.16616 28.9344 8 28.6832 8H19.8402C19.589 8 19.3682 8.16616 19.3003 8.40703L18.9589 9.61864H13.1393C11.9598 9.61864 11 10.5732 11 11.7464V41.0269C11 42.2 11.9598 43.1546 13.1393 43.1546H35.3847C36.5642 43.1546 37.524 42.2 37.524 41.0269V11.7469C37.524 10.5732 36.5642 9.61864 35.3847 9.61864ZM17.6241 15.1754C17.7301 15.3148 17.8955 15.3962 18.0709 15.3962H30.453C30.6285 15.3962 30.7939 15.3148 30.8998 15.1754C31.0058 15.0366 31.04 14.856 30.9929 14.6881L30.6162 13.3511H33.7713V39.4227H14.7521V13.3511H17.9072L17.5305 14.6881C17.4834 14.856 17.5182 15.0366 17.6241 15.1754ZM20.2657 9.11515H28.2583L29.7136 14.2811H18.8098L20.2657 9.11515ZM36.4027 41.0269C36.4027 41.585 35.9464 42.0394 35.3847 42.0394H13.1393C12.5781 42.0394 12.1212 41.585 12.1212 41.0269V11.7469C12.1212 11.1888 12.5781 10.7344 13.1393 10.7344H18.645L18.2217 12.2365H14.1915C13.8821 12.2365 13.6309 12.4863 13.6309 12.794V39.9809C13.6309 40.2887 13.8821 40.5385 14.1915 40.5385H34.3319C34.6413 40.5385 34.8925 40.2887 34.8925 39.9809V12.7935C34.8925 12.4857 34.6413 12.2359 34.3319 12.2359H30.3017L29.8784 10.7338H35.3847C35.9459 10.7338 36.4027 11.1882 36.4027 11.7464V41.0269V41.0269Z" fill="#FFF61B"/>
<path d="M31.0523 27.228H17.4716C17.1622 27.228 16.911 27.4778 16.911 27.7856C16.911 28.0934 17.1622 28.3431 17.4716 28.3431H31.0523C31.3618 28.3431 31.6129 28.0934 31.6129 27.7856C31.6129 27.4778 31.3618 27.228 31.0523 27.228Z" fill="#FFF61B"/>
<path d="M16.911 18.8644C16.911 19.1721 17.1622 19.4219 17.4716 19.4219H31.0523C31.3618 19.4219 31.6129 19.1721 31.6129 18.8644C31.6129 18.5566 31.3618 18.3068 31.0523 18.3068H17.4716C17.1622 18.3068 16.911 18.5566 16.911 18.8644Z" fill="#FFF61B"/>
<path d="M31.0523 31.6886H23.9842C23.6747 31.6886 23.4236 31.9384 23.4236 32.2462C23.4236 32.554 23.6747 32.8038 23.9842 32.8038H31.0523C31.3618 32.8038 31.6129 32.554 31.6129 32.2462C31.6129 31.9384 31.3618 31.6886 31.0523 31.6886Z" fill="#FFF61B"/>
<path d="M31.0523 22.7674H23.9842C23.6747 22.7674 23.4236 23.0172 23.4236 23.325C23.4236 23.6328 23.6747 23.8825 23.9842 23.8825H31.0523C31.3618 23.8825 31.6129 23.6328 31.6129 23.325C31.6129 23.0172 31.3618 22.7674 31.0523 22.7674Z" fill="#FFF61B"/>
<path d="M31.0523 36.1492H17.4716C17.1622 36.1492 16.911 36.399 16.911 36.7068C16.911 37.0146 17.1622 37.2644 17.4716 37.2644H31.0523C31.3618 37.2644 31.6129 37.0146 31.6129 36.7068C31.6129 36.399 31.3618 36.1492 31.0523 36.1492Z" fill="#FFF61B"/>
<path d="M18.4398 25.16C18.5491 25.2687 18.6926 25.3233 18.8362 25.3233C18.9797 25.3233 19.1232 25.2687 19.2325 25.16L22.1303 22.2779C22.3495 22.0598 22.3495 21.7074 22.1303 21.4894C21.9111 21.2714 21.5568 21.2714 21.3376 21.4894L18.8362 23.9773L17.868 23.0144C17.6488 22.7964 17.2945 22.7964 17.0753 23.0144C16.8561 23.2324 16.8561 23.5848 17.0753 23.8028L18.4398 25.16Z" fill="#FFF61B"/>
<path d="M18.4398 34.0812C18.5491 34.1899 18.6926 34.2445 18.8362 34.2445C18.9797 34.2445 19.1232 34.1899 19.2325 34.0812L22.1303 31.1991C22.3495 30.981 22.3495 30.6287 22.1303 30.4106C21.9111 30.1926 21.5568 30.1926 21.3376 30.4106L18.8362 32.8985L17.868 31.9356C17.6488 31.7176 17.2945 31.7176 17.0753 31.9356C16.8561 32.1536 16.8561 32.506 17.0753 32.724L18.4398 34.0812Z" fill="#FFF61B"/>
<rect x="0.75" y="0.75" width="48.5" height="49.5" stroke="#9C9A9A" stroke-width="0.5"/>
</svg>
