<svg xmlns="http://www.w3.org/2000/svg" xmlns:xlink="http://www.w3.org/1999/xlink" version="1.1" x="0px" y="0px" viewBox="0 0 100 125" enable-background="new 0 0 100 100" xml:space="preserve"><path d="M94.403,5H5.597C5.267,5,5,5.267,5,5.597v88.806C5,94.733,5.267,95,5.597,95h88.806C94.733,95,95,94.733,95,94.403V5.597  C95,5.267,94.733,5,94.403,5z M72.367,26.789H29.705L92.919,6.236L72.367,26.789z M56.307,72.017H43.693v-21.42h12.613V72.017z   M42.499,49.403v22.614H27.983V27.983h44.034v44.034H57.501V49.403H42.499z M26.789,72.367L6.655,92.501l20.134-61.927V72.367z   M27.633,73.211h14.866h15.002H69.54L7.089,93.755L27.633,73.211z M73.211,27.633L93.751,7.094L73.211,69.185V27.633z   M28.739,26.789H27.45L6.856,6.194h85.227L28.739,26.789z M26.789,27.816v1.793L6.194,92.952V7.221L26.789,27.816z M70.494,73.211  h1.69l20.594,20.594H7.89L70.494,73.211z M73.211,72.55v-2.414L93.806,7.877v85.267L73.211,72.55z"/><text x="0" y="115" fill="#000000" font-size="5px" font-weight="bold" font-family="'Helvetica Neue', Helvetica, Arial-Unicode, Arial, Sans-serif">Created by Dobs</text><text x="0" y="120" fill="#000000" font-size="5px" font-weight="bold" font-family="'Helvetica Neue', Helvetica, Arial-Unicode, Arial, Sans-serif">from the Noun Project</text></svg>