<svg xmlns:dc="http://purl.org/dc/elements/1.1/" xmlns:cc="http://creativecommons.org/ns#" xmlns:rdf="http://www.w3.org/1999/02/22-rdf-syntax-ns#" xmlns:svg="http://www.w3.org/2000/svg" xmlns="http://www.w3.org/2000/svg" version="1.1" x="0px" y="0px" viewBox="0 0 100 125"><path d="m 44.61079,4.9998 c -2.22919,0 -4.02468,1.78982 -4.02468,4.01903 l 0,4.8346 c -3.36976,0.87552 -6.55718,2.20959 -9.48649,3.93191 l -3.4171,-3.4172 c -1.57625,-1.57607 -4.11639,-1.57607 -5.69246,0 l -7.61909,7.6219 c -1.57616,1.57625 -1.57616,4.11335 0,5.68969 l 3.41719,3.41711 c -1.72304,2.93066 -3.05629,6.11809 -3.93189,9.48939 l -4.8318,0 c -2.22911,0 -4.02469,1.79262 -4.02469,4.02182 l 0,10.78026 c 0,2.22929 1.79558,4.0247 4.02469,4.0247 l 4.8318,0 c 0.27666,1.06379 0.60218,2.10842 0.96749,3.13316 0.0238,0.0779 0.0494,0.15255 0.0788,0.22779 0.46161,1.18502 1.61306,2.02499 2.96152,2.02499 1.75553,0 3.18094,-1.41993 3.18094,-3.17528 0,-0.35766 -0.0626,-0.7029 -0.17163,-1.02375 l 0.0169,-0.005 c -0.14903,-0.40896 -0.28988,-0.82061 -0.42191,-1.23749 1.90925,-0.31617 3.35815,-1.96686 3.35815,-3.96845 l 0,-10.78026 c 0,-2.00159 -1.4489,-3.65219 -3.35815,-3.96836 0.53873,-1.70171 1.22003,-3.34178 2.03066,-4.90219 1.57382,1.12832 3.7671,0.9801 5.18342,-0.43596 l 7.62179,-7.62181 c 1.41542,-1.4156 1.55699,-3.60692 0.43029,-5.18065 1.56194,-0.81189 3.20398,-1.49409 4.90785,-2.03346 0.31427,1.91133 1.96522,3.36095 3.96834,3.36095 l 10.78023,0 c 2.00312,0 3.65407,-1.44962 3.96843,-3.36095 1.70297,0.53919 3.34654,1.21635 4.90785,2.02779 -1.13039,1.57409 -0.98657,3.76919 0.43029,5.18632 l 7.62179,7.62181 c 1.41704,1.41687 3.60942,1.56077 5.18342,0.43029 0.81144,1.5614 1.49157,3.20489 2.03057,4.90786 -1.91123,0.31428 -3.36085,1.96524 -3.36085,3.96836 l 0,10.78026 c 0,2.00321 1.44962,3.65417 3.36085,3.96845 -0.53927,1.70369 -1.22147,3.34592 -2.03336,4.90786 -1.57382,-1.12679 -3.76512,-0.98513 -5.18063,0.43029 l -7.62179,7.62181 c -1.41686,1.41704 -1.56068,3.60935 -0.43029,5.18344 -1.56131,0.81144 -3.20488,1.49148 -4.90785,2.03058 -0.31571,-1.9098 -1.96909,-3.35807 -3.97122,-3.35807 l -10.77744,0 c -2.00195,0 -3.65281,1.44827 -3.96834,3.35807 -0.41688,-0.13203 -0.82872,-0.27279 -1.2375,-0.42183 l -0.008,0.0225 c -0.41687,-0.20088 -0.88145,-0.31221 -1.37537,-0.31221 -1.75526,0 -3.18085,1.41974 -3.18085,3.17537 0,1.48409 1.01816,2.72969 2.39336,3.07961 l -0.005,0.0225 c 1.09736,0.39942 2.21839,0.74916 3.36094,1.04625 l 0,4.8319 c 0,2.22921 1.7927,4.0247 4.0218,4.0247 l 10.77744,0 c 2.22928,0 4.02468,-1.79549 4.02468,-4.0247 l 0,-4.8319 c 3.37129,-0.87552 6.5588,-2.20878 9.48937,-3.93182 l 3.41998,3.41711 c 1.57607,1.57607 4.11324,1.57607 5.68958,0 l 7.62188,-7.62181 c 1.57616,-1.57625 1.57616,-4.11335 0,-5.68969 l -3.41719,-3.41711 c 1.72232,-2.9294 3.05638,-6.11665 3.9318,-9.4866 l 4.83189,0 c 2.22911,0 4.01902,-1.79541 4.01902,-4.0247 l 0,-10.78026 c 0,-2.2292 -1.78991,-4.02182 -4.01902,-4.02182 l -4.83189,0 c -0.87542,-3.37139 -2.20876,-6.55882 -3.9318,-9.48939 L 85.6347,27.6804 c 1.57616,-1.57643 1.57616,-4.11335 0,-5.68969 l -7.62188,-7.6219 c -1.57634,-1.57616 -4.11342,-1.57616 -5.68958,0 l -3.41998,3.4172 C 65.97269,16.06288 62.78518,14.72953 59.41389,13.8541 l 0,-4.8346 c 0,-2.22921 -1.78982,-4.01903 -4.01901,-4.01903 l -10.78311,0 z M 24.76312,64.77078 c -5.75249,0 -10.41744,4.66496 -10.41744,10.41747 0,5.7526 4.66495,10.41468 10.41744,10.41468 5.7525,0 10.41465,-4.66208 10.41465,-10.41468 0,-5.75251 -4.66215,-10.41747 -10.41465,-10.41747 z m 0,3.3047 c 3.9274,0 7.10996,3.18545 7.10996,7.11277 0,3.92741 -3.18256,7.10998 -7.10996,7.10998 -3.9274,0 -7.11275,-3.18257 -7.11275,-7.10998 0,-3.92732 3.18535,-7.11277 7.11275,-7.11277 z" style="opacity:0.98999999;color:#000000;fill:#000000;fill-opacity:1;fill-rule:nonzero;stroke:none;stroke-width:59.15499878;marker:none;visibility:visible;display:inline;overflow:visible;enable-background:accumulate"/><text x="0" y="115" fill="#000000" font-size="5px" font-weight="bold" font-family="'Helvetica Neue', Helvetica, Arial-Unicode, Arial, Sans-serif">Created by Bonegolem</text><text x="0" y="120" fill="#000000" font-size="5px" font-weight="bold" font-family="'Helvetica Neue', Helvetica, Arial-Unicode, Arial, Sans-serif">from the Noun Project</text></svg>