<svg xmlns="http://www.w3.org/2000/svg" viewBox="0 0 512 640" x="0px" y="0px"><title>architecture house outline icon</title><desc>architecture house outline icon illustration</desc><metadata><?xpacket begin="&#65279;" id="W5M0MpCehiHzreSzNTczkc9d"?><x:xmpmeta xmlns:x="adobe:ns:meta/" x:xmptk="Adobe XMP Core 5.6-c145 79.163499, 2018/08/13-16:40:22        "/><?xpacket end="w"?></metadata><path d="M363.863,122.458l0,0h0L438.407,197l0,0,0,0,21.413,21.413a18.054,18.054,0,0,0,12.825,5.4,18.574,18.574,0,0,0,7.045-1.408,18.026,18.026,0,0,0,11.362-16.782L492.32,50.688a30.859,30.859,0,0,0-30.854-31.112h-.257L306.263,20.84a18.3,18.3,0,0,0-12.786,31.232ZM300.176,36.582a6.616,6.616,0,0,1,6.182-4.186L461.3,31.133a18.956,18.956,0,0,1,13.809,5.654,19.165,19.165,0,0,1,5.653,13.807L479.5,205.539a6.739,6.739,0,0,1-11.5,4.71l-17.331-17.331,5.835-5.836a5.777,5.777,0,0,0-8.17-8.171l-5.836,5.836-16.314-16.314,5.835-5.836a5.778,5.778,0,1,0-8.17-8.172l-5.837,5.837L401.151,143.4l5.835-5.835a5.778,5.778,0,0,0-8.17-8.172l-5.837,5.836-8.157-8.158-8.7-8.7,5.836-5.836a5.778,5.778,0,0,0-8.171-8.171L367.95,110.2,351.635,93.888l5.836-5.835a5.778,5.778,0,0,0-8.17-8.173l-5.837,5.837L327.15,69.4l5.836-5.837a5.778,5.778,0,1,0-8.171-8.171l-5.836,5.837L301.648,43.9A6.616,6.616,0,0,1,300.176,36.582Z"/><path d="M443.486,142.439a5.778,5.778,0,0,0,9.864-4.038l.608-74.638a5.773,5.773,0,0,0-1.693-4.133,5.975,5.975,0,0,0-4.132-1.692l-74.635.609a5.778,5.778,0,0,0-4.039,9.864Zm-1.132-72.9-.447,54.974L387.382,69.99Z"/><path d="M25.251,376.526H42.7a5.779,5.779,0,1,0,0-11.557H31.029v-28.3H42.7a5.779,5.779,0,1,0,0-11.557H31.029v-28.3H42.7a5.779,5.779,0,1,0,0-11.557H31.029v-28.3H42.7a5.779,5.779,0,1,0,0-11.557H31.029V217.1H42.7a5.778,5.778,0,1,0,0-11.556H31.029v-28.3H42.7a5.778,5.778,0,1,0,0-11.556H31.029v-28.3H42.7a5.778,5.778,0,1,0,0-11.556H31.029v-28.3H42.7a5.779,5.779,0,1,0,0-11.557H25.251a5.78,5.78,0,0,0-5.779,5.779V370.748A5.779,5.779,0,0,0,25.251,376.526Z"/><path d="M97.715,223.983H205.277a5.782,5.782,0,0,0,4.308-1.927l86.871-97.163L383.1,212.27a5.779,5.779,0,0,0,8.207-8.137L300.343,112.4a5.711,5.711,0,0,0-4.253-1.707,5.773,5.773,0,0,0-4.158,1.924l-89.24,99.812h-92.06l80.63-90.182h62.245a5.779,5.779,0,0,0,0-11.557h-64.83a5.78,5.78,0,0,0-4.307,1.927L93.406,214.354a5.778,5.778,0,0,0,4.309,9.629Z"/><path d="M230.854,237.4a5.778,5.778,0,0,0-5.778,5.778V351.217A5.778,5.778,0,0,0,230.854,357H369.478a5.778,5.778,0,0,0,5.778-5.778V243.176a5.778,5.778,0,1,0-11.556,0V345.439H331.937V296.8a31.771,31.771,0,0,0-63.541,0v48.64H236.632V243.176A5.778,5.778,0,0,0,230.854,237.4Zm49.1,59.4a20.214,20.214,0,1,1,40.427,0v48.64H279.953Z"/><path d="M127.064,237.4a5.778,5.778,0,0,0-5.778,5.778V351.217A5.778,5.778,0,0,0,127.064,357h79.248a5.778,5.778,0,0,0,0-11.556h-73.47V243.176A5.778,5.778,0,0,0,127.064,237.4Z"/><path d="M472.366,397.589H39.634a20.185,20.185,0,0,0-20.162,20.162v54.512a20.184,20.184,0,0,0,20.162,20.161H472.366a20.184,20.184,0,0,0,20.162-20.161V417.751A20.185,20.185,0,0,0,472.366,397.589Zm8.605,74.674a8.614,8.614,0,0,1-8.605,8.605H39.634a8.614,8.614,0,0,1-8.6-8.605V417.751a8.614,8.614,0,0,1,8.605-8.6H70.871v11.669a5.778,5.778,0,0,0,11.556,0V409.146h28.3v11.669a5.778,5.778,0,0,0,11.556,0V409.146h28.3v24.67a5.778,5.778,0,0,0,11.556,0v-24.67h28.3v11.669a5.778,5.778,0,1,0,11.556,0V409.146h28.3v11.669a5.778,5.778,0,0,0,11.556,0V409.146h28.3v24.67a5.778,5.778,0,0,0,11.556,0v-24.67h28.3v11.669a5.778,5.778,0,0,0,11.556,0V409.146h28.3v11.669a5.778,5.778,0,0,0,11.556,0V409.146h28.3v24.67a5.779,5.779,0,0,0,11.557,0v-24.67h28.3v11.669a5.779,5.779,0,0,0,11.557,0V409.146h31.235a8.614,8.614,0,0,1,8.605,8.6Z"/><text x="0" y="527" fill="#000000" font-size="5px" font-weight="bold" font-family="'Helvetica Neue', Helvetica, Arial-Unicode, Arial, Sans-serif">Created by Maxicons</text><text x="0" y="532" fill="#000000" font-size="5px" font-weight="bold" font-family="'Helvetica Neue', Helvetica, Arial-Unicode, Arial, Sans-serif">from the Noun Project</text></svg>