<svg xmlns="http://www.w3.org/2000/svg" xmlns:xlink="http://www.w3.org/1999/xlink" version="1.1" x="0px" y="0px" viewBox="0 0 64 80" style="enable-background:new 0 0 64 64;" xml:space="preserve"><g><path d="M59,13v-1.192l-3.7-9.249C54.923,1.612,54.02,1,53,1s-1.923,0.612-2.3,1.559L47,11.808V13H18.941   C18.442,8.507,14.625,5,10,5c-4.963,0-9,4.038-9,9v40c0,4.962,4.037,9,9,9h53V13H59z M52,13v21h-3V13H52z M49,36h8v4   c0,0.551-0.448,1-1,1h-6c-0.552,0-1-0.449-1-1V36z M57,34h-3V13h3V34z M52.558,3.3V3.299c0.145-0.363,0.74-0.365,0.885,0.001   l3.081,7.7h-7.046L52.558,3.3z M21.75,23.493c1.359,0.351,2.656,0.888,3.856,1.596l0.668,0.395l3.039-3.04l4.243,4.243   l-3.039,3.039l0.394,0.667c0.708,1.2,1.245,2.497,1.596,3.857L32.701,35H37v6h-4.299l-0.194,0.75   c-0.351,1.36-0.888,2.657-1.596,3.857l-0.394,0.667l3.039,3.039l-4.243,4.243l-3.039-3.04l-0.668,0.395   c-1.2,0.708-2.497,1.246-3.856,1.596L21,52.701V57h-2.525C18.809,56.06,19,55.053,19,54v-5.051C24.598,48.442,29,43.728,29,38   s-4.402-10.442-10-10.949V19h2v4.299L21.75,23.493z M20.499,42.332c-0.465,0.269-0.974,0.45-1.499,0.557v-9.788   c2.279,0.465,4,2.484,4,4.899c0,1.178-0.418,2.322-1.177,3.222l1.529,1.289C24.415,41.251,25,39.649,25,38   c0-3.519-2.614-6.432-6-6.92v-2.021c4.493,0.5,8,4.317,8,8.941s-3.507,8.442-8,8.941v-2.018c0.88-0.127,1.731-0.415,2.501-0.86   L20.499,42.332z M3,14c0-3.86,3.141-7,7-7s7,3.14,7,7v34.356C15.349,46.312,12.826,45,10,45s-5.349,1.312-7,3.356V14z M3,54   c0-3.86,3.141-7,7-7s7,3.14,7,7s-3.141,7-7,7S3,57.86,3,54z M61,61H15.644c0.707-0.571,1.327-1.244,1.834-2H23v-4.768   c1.02-0.313,2.005-0.721,2.943-1.218l3.37,3.371l7.071-7.071l-3.37-3.371c0.496-0.938,0.904-1.923,1.217-2.943H39V33h-4.769   c-0.312-1.02-0.721-2.005-1.217-2.943l3.37-3.371l-7.071-7.071l-3.37,3.371c-0.938-0.497-1.924-0.905-2.943-1.218V17h-4v-2h28v25   c0,1.654,1.346,3,3,3h6c1.654,0,3-1.346,3-3V15h2V61z"/><path d="M39,59h20V45H39V59z M41,47h16v10H41V47z"/><rect x="47" y="49" width="8" height="2"/><rect x="43" y="49" width="2" height="2"/><rect x="43" y="53" width="8" height="2"/><rect x="53" y="53" width="2" height="2"/><path d="M10,49c-2.757,0-5,2.243-5,5s2.243,5,5,5v-2c-1.654,0-3-1.346-3-3s1.346-3,3-3s3,1.346,3,3h2C15,51.243,12.757,49,10,49z"/></g><text x="0" y="79" fill="#000000" font-size="5px" font-weight="bold" font-family="'Helvetica Neue', Helvetica, Arial-Unicode, Arial, Sans-serif">Created by Eucalyp</text><text x="0" y="84" fill="#000000" font-size="5px" font-weight="bold" font-family="'Helvetica Neue', Helvetica, Arial-Unicode, Arial, Sans-serif">from the Noun Project</text></svg>