<svg xmlns="http://www.w3.org/2000/svg" xmlns:xlink="http://www.w3.org/1999/xlink" version="1.1" x="0px" y="0px" viewBox="1 -1 100 125" style="enable-background:new 1 -1 100 100;" xml:space="preserve"><g><path d="M95.5,18.5L95.5,18.5c-0.8-1.2-1.9-1.2-2.3-1.2H25.3l-1.2-7.2c-0.3-1.4-1.5-2.4-2.9-2.4H8.9c-1.7,0-2.9,1.3-2.9,2.9   s1.3,2.9,2.9,2.9h9.9l6.4,38.5c0,0.3,0.1,0.6,0.2,0.8L27.5,66c0.3,1.4,1.5,2.3,2.9,2.3H83c1.7,0,2.9-1.3,2.9-2.9s-1.3-2.9-2.9-2.9   H32.8l-1.3-7.8h53.2c0.6,0.1,1.2-0.1,1.7-0.4c0.6-0.4,1.1-1.1,1.2-1.8L95.9,21C96.2,20.2,96.1,19.3,95.5,18.5z"/><path d="M38.3,70.9c-5.3,0-9.7,4.3-9.7,9.7s4.3,9.7,9.7,9.7s9.7-4.3,9.7-9.7S43.7,70.9,38.3,70.9z M38.3,76.7   c2.1,0,3.7,1.7,3.7,3.8c0,2.1-1.8,3.8-3.8,3.8c-2.1,0-3.7-1.7-3.7-3.8C34.5,78.5,36.2,76.7,38.3,76.7z"/><path d="M70.1,70.9c-5.3,0-9.7,4.3-9.7,9.7s4.3,9.7,9.7,9.7s9.7-4.3,9.7-9.7S75.5,70.9,70.1,70.9z M70,76.7c2.2,0,3.8,1.7,3.8,3.8   c0,2.1-1.7,3.8-3.8,3.8s-3.8-1.7-3.8-3.8C66.2,78.5,67.9,76.7,70,76.7z"/></g><text x="1" y="114" fill="#000000" font-size="5px" font-weight="bold" font-family="'Helvetica Neue', Helvetica, Arial-Unicode, Arial, Sans-serif">Created by Fantastic</text><text x="1" y="119" fill="#000000" font-size="5px" font-weight="bold" font-family="'Helvetica Neue', Helvetica, Arial-Unicode, Arial, Sans-serif">from the Noun Project</text></svg>