<svg xmlns:dc="http://purl.org/dc/elements/1.1/" xmlns:cc="http://creativecommons.org/ns#" xmlns:rdf="http://www.w3.org/1999/02/22-rdf-syntax-ns#" xmlns:svg="http://www.w3.org/2000/svg" xmlns="http://www.w3.org/2000/svg" xmlns:sodipodi="http://sodipodi.sourceforge.net/DTD/sodipodi-0.dtd" xmlns:inkscape="http://www.inkscape.org/namespaces/inkscape" version="1.1" x="0px" y="0px" viewBox="0 0 32 40"><g transform="translate(0,-1020.3622)"><g transform="translate(-0.1874839,-0.08735)"><g transform="translate(0.18336736,-0.87410704)"><path style="text-indent:0;text-transform:none;direction:ltr;block-progression:tb;baseline-shift:baseline;color:#000000;enable-background:accumulate;" d="m 15.761719,-0.02539063 -0.496094,0.0625 -0.599609,0.08007813 -0.04297,0.009766 -0.384766,0.0859375 L 13.75,0.3203125 l 0.216797,0.9765625 0.488281,-0.1074219 0.384766,-0.085937 0.002,0 0.554687,-0.072266 0.496094,-0.0644531 z m 1.179687,0.05468751 -0.21289,0.97851562 0.488281,0.1054687 0.509765,0.1132813 0.01172,0 0.402344,0.1269531 0.478516,0.1484375 L 18.916016,0.546875 18.4375,0.3984375 17.992188,0.25976562 17.951172,0.25 17.429688,0.13476562 z m -4.238281,0.71289062 -0.445313,0.22851562 -0.04492,0.0253906 -0.03711,0.0195313 -0.513672,0.3203125 -0.0332,0.023437 -0.27539,0.2050781 -0.400391,0.2988281 0.597656,0.8007813 0.400391,-0.2988281 0.263672,-0.1953125 0.01172,-0.00977 0.455079,-0.28125 0.0332,-0.017578 0.445312,-0.2285156 z m 7.267578,0.3222656 -0.59375,0.8027344 0.400391,0.296875 0.443359,0.328125 0.306641,0.2695313 0.375,0.3300781 L 21.5625,2.3398438 21.1875,2.0097656 20.865234,1.7265625 20.832031,1.703125 20.373047,1.3632812 z M 15.5,19.015625 15.5,32 l 1,0 0,-12.984375 z M 10.166016,2.6660156 9.8515625,3.0585938 l -0.046875,0.060547 -0.025391,0.03125 -0.3398438,0.5039063 -0.023437,0.037109 -0.1542968,0.2753907 -0.2421876,0.4375 0.8730469,0.4863281 0.2421879,-0.4355469 0.132812,-0.2402343 0.0039,-0.00977 0.3125,-0.4628906 0.0059,-0.00977 0.04101,-0.050781 0.3125,-0.3886718 z M 16,2.96875 c 2.555848,0 4.617187,2.058075 4.617188,4.609375 0,1.3661 -0.683213,2.3518437 -1.458985,3.589844 -0.706335,1.1272 -1.389888,2.521018 -1.519531,4.386719 l -1.138672,0 0,-3.41211 c 0.0037,-0.264158 -0.235816,-0.507125 -0.5,-0.507125 -0.264184,0 -0.503738,0.242967 -0.5,0.507125 l 0,3.41211 -1.138672,0 C 14.231686,13.688987 13.548133,12.295169 12.841797,11.167969 12.066025,9.9299687 11.382812,8.944225 11.382812,7.578125 11.382812,5.026825 13.444154,2.96875 16,2.96875 z m 6.326172,0.2675781 -0.873047,0.4882813 0.246094,0.4355468 0.279297,0.4921876 0.0059,0.015625 0.15625,0.34375 0.207031,0.4550781 L 23.257812,5.0527344 23.050781,4.5976562 22.888672,4.2402344 22.869141,4.2011719 22.570312,3.671875 z M 8.6191406,5.4628906 8.4960938,5.9472656 8.453125,6.1152344 l -0.00781,0.042969 -0.1035156,0.625 -0.00391,0.042969 -0.015625,0.1914062 -0.037109,0.5 0.9980469,0.074219 0.037109,-0.4980469 0.00977,-0.1503906 0.00195,-0.00977 0.097656,-0.6015626 0.00195,-0.013672 0.033203,-0.125 0.1230468,-0.484375 z m 14.9335934,0.6796875 -0.986328,0.1660157 0.08203,0.4921874 0.01562,0.089844 0.04688,0.6035156 -0.002,0.2128906 -0.0039,0.5 1,0.011719 0.0039,-0.5 0.002,-0.2558594 -0.002,-0.044922 -0.04883,-0.6210938 -0.0059,-0.042969 -0.01953,-0.1171874 z M 9.3183594,8.4628906 8.3359375,8.6445312 l 0.089844,0.4921876 0.048828,0.2675781 0.00977,0.041016 0.1601562,0.5839845 0.013672,0.04101 0.041016,0.113282 0.171875,0.470703 0.9394531,-0.34375 L 9.6386719,9.8398438 9.6015625,9.7382812 9.5976562,9.7265625 9.4550781,9.2070312 9.4101562,8.9550781 z m 13.2597656,0.6152344 -0.130859,0.4804688 -0.04687,0.1757812 -0.002,0.00977 -0.183594,0.5058594 -0.08008,0.171875 -0.208985,0.453125 0.908203,0.417969 0.208985,-0.453125 0.08789,-0.1875 0.01563,-0.03906 0.205078,-0.568359 0.01367,-0.03906 0.04883,-0.1835934 0.128907,-0.4824218 z m -12.384766,2.019531 -0.8242184,0.566406 0.2832032,0.41211 0.1660156,0.242187 0.025391,0.0332 0.384766,0.46875 0.02734,0.03125 0.07031,0.07227 0.347656,0.359375 0.71875,-0.697265 -0.349609,-0.359376 -0.05664,-0.05859 -0.01172,-0.01172 -0.341797,-0.417969 -0.15625,-0.228515 z m 11.271485,0.519532 -0.316406,0.386718 -0.119141,0.146485 -0.396485,0.412109 -0.01172,0.01172 -0.103516,0.0918 -0.376953,0.326172 0.658203,0.753906 0.376953,-0.330078 0.134766,-0.119141 0.03125,-0.02734 0.421875,-0.4375 0.0293,-0.0332 0.132812,-0.162109 0.314453,-0.388672 z m -7.011719,4.9375 1.466797,0 c 0.05356,0.0088 0.108551,0.0088 0.162109,0 l 1.464844,0 0,1.460937 -3.09375,0 z m -3.242187,4.61914 0.002,0 c 2.043815,0 3.721235,1.445638 4.160156,3.398438 -0.342331,0.087 -0.682742,0.188153 -1.037109,0.189453 -2.044651,0 -3.724967,-1.445038 -4.164063,-3.398438 0.342436,-0.087 0.684576,-0.188053 1.039063,-0.189453 z m 9.59375,2.34961 0.002,0 c 0.348542,0 0.684686,0.100446 1.021484,0.185546 -0.435762,1.9276 -2.092891,3.351116 -4.111328,3.353516 -0.349276,0 -0.685943,-0.100247 -1.023438,-0.185547 0.435762,-1.9276 2.092892,-3.351116 4.111329,-3.353515 z" transform="translate(0.00411654,1021.3237)" fill="#000000" fill-opacity="1" fill-rule="nonzero" stroke="none" visibility="visible" display="inline" overflow="visible"/></g></g></g><text x="0" y="47" fill="#000000" font-size="5px" font-weight="bold" font-family="'Helvetica Neue', Helvetica, Arial-Unicode, Arial, Sans-serif">Created by Chameleon Design</text><text x="0" y="52" fill="#000000" font-size="5px" font-weight="bold" font-family="'Helvetica Neue', Helvetica, Arial-Unicode, Arial, Sans-serif">from the Noun Project</text></svg>